<mxfile host="app.diagrams.net" agent="Mozilla/5.0 (Windows NT 10.0; Win64; x64) AppleWebKit/537.36 (KHTML, like Gecko) Chrome/136.0.0.0 Safari/537.36" version="27.0.6">
  <diagram name="Página-1" id="mWamjsiQDqu8ru9OgxXo">
    <mxGraphModel dx="1426" dy="791" grid="1" gridSize="10" guides="1" tooltips="1" connect="1" arrows="1" fold="1" page="1" pageScale="1" pageWidth="827" pageHeight="1169" math="0" shadow="0">
      <root>
        <mxCell id="0" />
        <mxCell id="1" parent="0" />
        <mxCell id="_3RmegfmRFNaw-Xtq7hj-5" style="edgeStyle=orthogonalEdgeStyle;rounded=0;orthogonalLoop=1;jettySize=auto;html=1;dashed=1;dashPattern=8 8;endArrow=none;startFill=0;strokeColor=#999999;flowAnimation=0;" edge="1" parent="1" source="_3RmegfmRFNaw-Xtq7hj-1" target="_3RmegfmRFNaw-Xtq7hj-2">
          <mxGeometry relative="1" as="geometry" />
        </mxCell>
        <mxCell id="_3RmegfmRFNaw-Xtq7hj-1" value="Usuario" style="shape=umlActor;verticalLabelPosition=bottom;verticalAlign=top;html=1;outlineConnect=0;fillColor=#e1d5e7;strokeColor=#9673a6;" vertex="1" parent="1">
          <mxGeometry x="140" y="30" width="30" height="60" as="geometry" />
        </mxCell>
        <mxCell id="_3RmegfmRFNaw-Xtq7hj-2" value="Usuario" style="shape=umlActor;verticalLabelPosition=bottom;verticalAlign=top;html=1;outlineConnect=0;fillColor=#e1d5e7;strokeColor=#9673a6;" vertex="1" parent="1">
          <mxGeometry x="140" y="690" width="30" height="60" as="geometry" />
        </mxCell>
        <mxCell id="_3RmegfmRFNaw-Xtq7hj-9" style="edgeStyle=orthogonalEdgeStyle;rounded=0;orthogonalLoop=1;jettySize=auto;html=1;dashed=1;dashPattern=8 8;endArrow=none;startFill=0;strokeColor=#999999;" edge="1" parent="1" source="_3RmegfmRFNaw-Xtq7hj-6" target="_3RmegfmRFNaw-Xtq7hj-8">
          <mxGeometry relative="1" as="geometry" />
        </mxCell>
        <mxCell id="_3RmegfmRFNaw-Xtq7hj-6" value="Sistema" style="rounded=1;whiteSpace=wrap;html=1;fillColor=#e1d5e7;strokeColor=#9673a6;" vertex="1" parent="1">
          <mxGeometry x="260" y="60" width="70" height="30" as="geometry" />
        </mxCell>
        <mxCell id="_3RmegfmRFNaw-Xtq7hj-8" value="Sistema" style="rounded=1;whiteSpace=wrap;html=1;fillColor=#e1d5e7;strokeColor=#9673a6;" vertex="1" parent="1">
          <mxGeometry x="260" y="705" width="70" height="30" as="geometry" />
        </mxCell>
        <mxCell id="_3RmegfmRFNaw-Xtq7hj-10" style="edgeStyle=orthogonalEdgeStyle;rounded=0;orthogonalLoop=1;jettySize=auto;html=1;dashed=1;dashPattern=8 8;endArrow=none;startFill=0;strokeColor=#999999;" edge="1" parent="1" source="_3RmegfmRFNaw-Xtq7hj-11" target="_3RmegfmRFNaw-Xtq7hj-12">
          <mxGeometry relative="1" as="geometry" />
        </mxCell>
        <mxCell id="_3RmegfmRFNaw-Xtq7hj-11" value="Jefe de Área" style="rounded=1;whiteSpace=wrap;html=1;fillColor=#e1d5e7;strokeColor=#9673a6;" vertex="1" parent="1">
          <mxGeometry x="420" y="60" width="80" height="30" as="geometry" />
        </mxCell>
        <mxCell id="_3RmegfmRFNaw-Xtq7hj-12" value="Jefe de Área" style="rounded=1;whiteSpace=wrap;html=1;fillColor=#e1d5e7;strokeColor=#9673a6;" vertex="1" parent="1">
          <mxGeometry x="420" y="705" width="80" height="30" as="geometry" />
        </mxCell>
        <mxCell id="_3RmegfmRFNaw-Xtq7hj-13" style="edgeStyle=orthogonalEdgeStyle;rounded=0;orthogonalLoop=1;jettySize=auto;html=1;dashed=1;dashPattern=8 8;endArrow=none;startFill=0;strokeColor=#999999;" edge="1" parent="1" source="_3RmegfmRFNaw-Xtq7hj-14" target="_3RmegfmRFNaw-Xtq7hj-15">
          <mxGeometry relative="1" as="geometry" />
        </mxCell>
        <mxCell id="_3RmegfmRFNaw-Xtq7hj-14" value="Técnico" style="rounded=1;whiteSpace=wrap;html=1;fillColor=#e1d5e7;strokeColor=#9673a6;" vertex="1" parent="1">
          <mxGeometry x="510" y="60" width="70" height="30" as="geometry" />
        </mxCell>
        <mxCell id="_3RmegfmRFNaw-Xtq7hj-15" value="Técnico" style="rounded=1;whiteSpace=wrap;html=1;fillColor=#e1d5e7;strokeColor=#9673a6;" vertex="1" parent="1">
          <mxGeometry x="510" y="705" width="70" height="30" as="geometry" />
        </mxCell>
        <mxCell id="_3RmegfmRFNaw-Xtq7hj-16" style="edgeStyle=orthogonalEdgeStyle;rounded=0;orthogonalLoop=1;jettySize=auto;html=1;dashed=1;dashPattern=8 8;endArrow=none;startFill=0;strokeColor=#999999;" edge="1" parent="1" source="_3RmegfmRFNaw-Xtq7hj-17" target="_3RmegfmRFNaw-Xtq7hj-18">
          <mxGeometry relative="1" as="geometry" />
        </mxCell>
        <mxCell id="_3RmegfmRFNaw-Xtq7hj-17" value="Logística" style="rounded=1;whiteSpace=wrap;html=1;fillColor=#e1d5e7;strokeColor=#9673a6;" vertex="1" parent="1">
          <mxGeometry x="590" y="60" width="70" height="30" as="geometry" />
        </mxCell>
        <mxCell id="_3RmegfmRFNaw-Xtq7hj-18" value="Logística" style="rounded=1;whiteSpace=wrap;html=1;fillColor=#e1d5e7;strokeColor=#9673a6;" vertex="1" parent="1">
          <mxGeometry x="590" y="705" width="70" height="30" as="geometry" />
        </mxCell>
        <mxCell id="_3RmegfmRFNaw-Xtq7hj-22" value="" style="endArrow=classic;html=1;rounded=0;" edge="1" parent="1">
          <mxGeometry width="50" height="50" relative="1" as="geometry">
            <mxPoint x="160" y="160" as="sourcePoint" />
            <mxPoint x="290" y="160" as="targetPoint" />
          </mxGeometry>
        </mxCell>
        <mxCell id="_3RmegfmRFNaw-Xtq7hj-23" value="&lt;font style=&quot;font-size: 13px;&quot;&gt;Reportar incidencia&lt;/font&gt;" style="edgeLabel;html=1;align=center;verticalAlign=middle;resizable=0;points=[];" vertex="1" connectable="0" parent="_3RmegfmRFNaw-Xtq7hj-22">
          <mxGeometry x="-0.0462" relative="1" as="geometry">
            <mxPoint y="-10" as="offset" />
          </mxGeometry>
        </mxCell>
        <mxCell id="_3RmegfmRFNaw-Xtq7hj-25" value="" style="endArrow=classic;html=1;rounded=0;" edge="1" parent="1">
          <mxGeometry width="50" height="50" relative="1" as="geometry">
            <mxPoint x="300" y="200" as="sourcePoint" />
            <mxPoint x="460" y="200" as="targetPoint" />
          </mxGeometry>
        </mxCell>
        <mxCell id="_3RmegfmRFNaw-Xtq7hj-26" value="&lt;font style=&quot;font-size: 13px;&quot;&gt;Notificar nueva incidencia&lt;/font&gt;" style="edgeLabel;html=1;align=center;verticalAlign=middle;resizable=0;points=[];" vertex="1" connectable="0" parent="_3RmegfmRFNaw-Xtq7hj-25">
          <mxGeometry x="-0.0462" relative="1" as="geometry">
            <mxPoint y="-10" as="offset" />
          </mxGeometry>
        </mxCell>
        <mxCell id="_3RmegfmRFNaw-Xtq7hj-27" value="" style="endArrow=classic;html=1;rounded=0;" edge="1" parent="1">
          <mxGeometry width="50" height="50" relative="1" as="geometry">
            <mxPoint x="460" y="230" as="sourcePoint" />
            <mxPoint x="300" y="230" as="targetPoint" />
          </mxGeometry>
        </mxCell>
        <mxCell id="_3RmegfmRFNaw-Xtq7hj-28" value="&lt;font style=&quot;font-size: 13px;&quot;&gt;Verificar disponibilidad&lt;/font&gt;" style="edgeLabel;html=1;align=center;verticalAlign=middle;resizable=0;points=[];" vertex="1" connectable="0" parent="_3RmegfmRFNaw-Xtq7hj-27">
          <mxGeometry x="-0.0462" relative="1" as="geometry">
            <mxPoint y="-10" as="offset" />
          </mxGeometry>
        </mxCell>
        <mxCell id="_3RmegfmRFNaw-Xtq7hj-29" value="" style="endArrow=classic;html=1;rounded=0;" edge="1" parent="1">
          <mxGeometry width="50" height="50" relative="1" as="geometry">
            <mxPoint x="460" y="260" as="sourcePoint" />
            <mxPoint x="300" y="260" as="targetPoint" />
          </mxGeometry>
        </mxCell>
        <mxCell id="_3RmegfmRFNaw-Xtq7hj-30" value="&lt;font style=&quot;font-size: 13px;&quot;&gt;Asignar Ténico&lt;/font&gt;" style="edgeLabel;html=1;align=center;verticalAlign=middle;resizable=0;points=[];" vertex="1" connectable="0" parent="_3RmegfmRFNaw-Xtq7hj-29">
          <mxGeometry x="-0.0462" relative="1" as="geometry">
            <mxPoint y="-10" as="offset" />
          </mxGeometry>
        </mxCell>
        <mxCell id="_3RmegfmRFNaw-Xtq7hj-32" value="" style="endArrow=classic;html=1;rounded=0;" edge="1" parent="1">
          <mxGeometry width="50" height="50" relative="1" as="geometry">
            <mxPoint x="300" y="290" as="sourcePoint" />
            <mxPoint x="540" y="290" as="targetPoint" />
          </mxGeometry>
        </mxCell>
        <mxCell id="_3RmegfmRFNaw-Xtq7hj-33" value="&lt;font style=&quot;font-size: 13px;&quot;&gt;Notificar tarea asignada&lt;/font&gt;" style="edgeLabel;html=1;align=center;verticalAlign=middle;resizable=0;points=[];" vertex="1" connectable="0" parent="_3RmegfmRFNaw-Xtq7hj-32">
          <mxGeometry x="-0.0462" relative="1" as="geometry">
            <mxPoint y="-10" as="offset" />
          </mxGeometry>
        </mxCell>
        <mxCell id="_3RmegfmRFNaw-Xtq7hj-34" value="" style="endArrow=classic;html=1;rounded=0;" edge="1" parent="1">
          <mxGeometry width="50" height="50" relative="1" as="geometry">
            <mxPoint x="534" y="320" as="sourcePoint" />
            <mxPoint x="294" y="320" as="targetPoint" />
          </mxGeometry>
        </mxCell>
        <mxCell id="_3RmegfmRFNaw-Xtq7hj-35" value="&lt;font style=&quot;font-size: 13px;&quot;&gt;Consultar incidencia&lt;/font&gt;" style="edgeLabel;html=1;align=center;verticalAlign=middle;resizable=0;points=[];" vertex="1" connectable="0" parent="_3RmegfmRFNaw-Xtq7hj-34">
          <mxGeometry x="-0.0462" relative="1" as="geometry">
            <mxPoint y="-10" as="offset" />
          </mxGeometry>
        </mxCell>
        <mxCell id="_3RmegfmRFNaw-Xtq7hj-36" value="" style="endArrow=classic;html=1;rounded=0;" edge="1" parent="1">
          <mxGeometry width="50" height="50" relative="1" as="geometry">
            <mxPoint x="550" y="350" as="sourcePoint" />
            <mxPoint x="160" y="350" as="targetPoint" />
          </mxGeometry>
        </mxCell>
        <mxCell id="_3RmegfmRFNaw-Xtq7hj-37" value="&lt;font style=&quot;font-size: 13px;&quot;&gt;Visita para revisión&lt;/font&gt;" style="edgeLabel;html=1;align=center;verticalAlign=middle;resizable=0;points=[];" vertex="1" connectable="0" parent="_3RmegfmRFNaw-Xtq7hj-36">
          <mxGeometry x="-0.0462" relative="1" as="geometry">
            <mxPoint y="-10" as="offset" />
          </mxGeometry>
        </mxCell>
        <mxCell id="_3RmegfmRFNaw-Xtq7hj-41" value="alt" style="shape=umlFrame;whiteSpace=wrap;html=1;pointerEvents=0;fillColor=#e1d5e7;strokeColor=#000000;gradientColor=none;swimlaneFillColor=none;strokeWidth=3;" vertex="1" parent="1">
          <mxGeometry x="230" y="380" width="430" height="260" as="geometry" />
        </mxCell>
        <mxCell id="_3RmegfmRFNaw-Xtq7hj-42" value="&lt;font style=&quot;font-size: 13px;&quot;&gt;[Problema menor]&lt;/font&gt;" style="text;strokeColor=none;fillColor=none;html=1;fontSize=24;fontStyle=1;verticalAlign=middle;align=center;" vertex="1" parent="1">
          <mxGeometry x="340" y="390" width="100" as="geometry" />
        </mxCell>
        <mxCell id="_3RmegfmRFNaw-Xtq7hj-43" value="" style="endArrow=classic;html=1;rounded=0;" edge="1" parent="1">
          <mxGeometry width="50" height="50" relative="1" as="geometry">
            <mxPoint x="540" y="430" as="sourcePoint" />
            <mxPoint x="300" y="430" as="targetPoint" />
          </mxGeometry>
        </mxCell>
        <mxCell id="_3RmegfmRFNaw-Xtq7hj-44" value="&lt;font style=&quot;font-size: 13px;&quot;&gt;Registrar solución&lt;/font&gt;" style="edgeLabel;html=1;align=center;verticalAlign=middle;resizable=0;points=[];" vertex="1" connectable="0" parent="_3RmegfmRFNaw-Xtq7hj-43">
          <mxGeometry x="-0.0462" relative="1" as="geometry">
            <mxPoint y="-10" as="offset" />
          </mxGeometry>
        </mxCell>
        <mxCell id="_3RmegfmRFNaw-Xtq7hj-45" value="" style="endArrow=classic;html=1;rounded=0;" edge="1" parent="1">
          <mxGeometry width="50" height="50" relative="1" as="geometry">
            <mxPoint x="300" y="460" as="sourcePoint" />
            <mxPoint x="550" y="460" as="targetPoint" />
          </mxGeometry>
        </mxCell>
        <mxCell id="_3RmegfmRFNaw-Xtq7hj-46" value="&lt;font style=&quot;font-size: 13px;&quot;&gt;Confirmar registro&lt;/font&gt;" style="edgeLabel;html=1;align=center;verticalAlign=middle;resizable=0;points=[];" vertex="1" connectable="0" parent="_3RmegfmRFNaw-Xtq7hj-45">
          <mxGeometry x="-0.0462" relative="1" as="geometry">
            <mxPoint y="-10" as="offset" />
          </mxGeometry>
        </mxCell>
        <mxCell id="_3RmegfmRFNaw-Xtq7hj-47" value="&lt;font style=&quot;font-size: 13px;&quot;&gt;[Problema mayor]&lt;/font&gt;" style="text;strokeColor=none;fillColor=none;html=1;fontSize=24;fontStyle=1;verticalAlign=middle;align=center;" vertex="1" parent="1">
          <mxGeometry x="240" y="485" width="100" height="10" as="geometry" />
        </mxCell>
        <mxCell id="_3RmegfmRFNaw-Xtq7hj-48" value="" style="endArrow=classic;html=1;rounded=0;" edge="1" parent="1">
          <mxGeometry width="50" height="50" relative="1" as="geometry">
            <mxPoint x="540" y="530" as="sourcePoint" />
            <mxPoint x="300" y="530" as="targetPoint" />
          </mxGeometry>
        </mxCell>
        <mxCell id="_3RmegfmRFNaw-Xtq7hj-49" value="&lt;font style=&quot;font-size: 13px;&quot;&gt;Solicitar repuesto&lt;/font&gt;" style="edgeLabel;html=1;align=center;verticalAlign=middle;resizable=0;points=[];" vertex="1" connectable="0" parent="_3RmegfmRFNaw-Xtq7hj-48">
          <mxGeometry x="-0.0462" relative="1" as="geometry">
            <mxPoint y="-10" as="offset" />
          </mxGeometry>
        </mxCell>
        <mxCell id="_3RmegfmRFNaw-Xtq7hj-50" value="" style="endArrow=classic;html=1;rounded=0;" edge="1" parent="1">
          <mxGeometry width="50" height="50" relative="1" as="geometry">
            <mxPoint x="295" y="560" as="sourcePoint" />
            <mxPoint x="625" y="560" as="targetPoint" />
          </mxGeometry>
        </mxCell>
        <mxCell id="_3RmegfmRFNaw-Xtq7hj-51" value="&lt;font style=&quot;font-size: 13px;&quot;&gt;Enviar solicitud&lt;/font&gt;" style="edgeLabel;html=1;align=center;verticalAlign=middle;resizable=0;points=[];" vertex="1" connectable="0" parent="_3RmegfmRFNaw-Xtq7hj-50">
          <mxGeometry x="-0.0462" relative="1" as="geometry">
            <mxPoint y="-10" as="offset" />
          </mxGeometry>
        </mxCell>
        <mxCell id="_3RmegfmRFNaw-Xtq7hj-53" value="" style="endArrow=classic;html=1;rounded=0;" edge="1" parent="1">
          <mxGeometry width="50" height="50" relative="1" as="geometry">
            <mxPoint x="620" y="590" as="sourcePoint" />
            <mxPoint x="300" y="590" as="targetPoint" />
          </mxGeometry>
        </mxCell>
        <mxCell id="_3RmegfmRFNaw-Xtq7hj-54" value="&lt;font style=&quot;font-size: 13px;&quot;&gt;Confirmar reenvio&lt;/font&gt;" style="edgeLabel;html=1;align=center;verticalAlign=middle;resizable=0;points=[];" vertex="1" connectable="0" parent="_3RmegfmRFNaw-Xtq7hj-53">
          <mxGeometry x="-0.0462" relative="1" as="geometry">
            <mxPoint y="-10" as="offset" />
          </mxGeometry>
        </mxCell>
        <mxCell id="_3RmegfmRFNaw-Xtq7hj-55" value="" style="endArrow=classic;html=1;rounded=0;" edge="1" parent="1">
          <mxGeometry width="50" height="50" relative="1" as="geometry">
            <mxPoint x="540" y="620" as="sourcePoint" />
            <mxPoint x="300" y="620" as="targetPoint" />
          </mxGeometry>
        </mxCell>
        <mxCell id="_3RmegfmRFNaw-Xtq7hj-56" value="&lt;font style=&quot;font-size: 13px;&quot;&gt;Registrar reparación&lt;/font&gt;" style="edgeLabel;html=1;align=center;verticalAlign=middle;resizable=0;points=[];" vertex="1" connectable="0" parent="_3RmegfmRFNaw-Xtq7hj-55">
          <mxGeometry x="-0.0462" relative="1" as="geometry">
            <mxPoint y="-10" as="offset" />
          </mxGeometry>
        </mxCell>
        <mxCell id="_3RmegfmRFNaw-Xtq7hj-60" value="" style="endArrow=none;dashed=1;html=1;dashPattern=1 1;strokeWidth=2;rounded=0;entryX=1.002;entryY=0.4;entryDx=0;entryDy=0;entryPerimeter=0;" edge="1" parent="1" target="_3RmegfmRFNaw-Xtq7hj-41">
          <mxGeometry width="50" height="50" relative="1" as="geometry">
            <mxPoint x="227" y="480" as="sourcePoint" />
            <mxPoint x="420" y="400" as="targetPoint" />
          </mxGeometry>
        </mxCell>
        <mxCell id="_3RmegfmRFNaw-Xtq7hj-63" value="" style="endArrow=classic;html=1;rounded=0;" edge="1" parent="1">
          <mxGeometry width="50" height="50" relative="1" as="geometry">
            <mxPoint x="540" y="680" as="sourcePoint" />
            <mxPoint x="300" y="680" as="targetPoint" />
          </mxGeometry>
        </mxCell>
        <mxCell id="_3RmegfmRFNaw-Xtq7hj-64" value="&lt;font style=&quot;font-size: 13px;&quot;&gt;Registrar informo técnico&lt;/font&gt;" style="edgeLabel;html=1;align=center;verticalAlign=middle;resizable=0;points=[];" vertex="1" connectable="0" parent="_3RmegfmRFNaw-Xtq7hj-63">
          <mxGeometry x="-0.0462" relative="1" as="geometry">
            <mxPoint y="-10" as="offset" />
          </mxGeometry>
        </mxCell>
      </root>
    </mxGraphModel>
  </diagram>
</mxfile>
